<?xml version="1.0" encoding="utf-8"?>
<!-- Generator: Adobe Illustrator 16.0.0, SVG Export Plug-In . SVG Version: 6.00 Build 0)  -->
<!DOCTYPE svg PUBLIC "-//W3C//DTD SVG 1.1//EN" "http://www.w3.org/Graphics/SVG/1.1/DTD/svg11.dtd">
<svg version="1.1" id="Layer_1" xmlns="http://www.w3.org/2000/svg" xmlns:xlink="http://www.w3.org/1999/xlink" x="0px" y="0px"
	 width="48px" height="48px" viewBox="0 0 48 48" enable-background="new 0 0 48 48" xml:space="preserve">
<g>
	<defs>
		<rect id="SVGID_1_" x="1.516" y="1.515" width="44.969" height="44.969"/>
	</defs>
	<clipPath id="SVGID_2_">
		<use xlink:href="#SVGID_1_"  overflow="visible"/>
	</clipPath>
	<g clip-path="url(#SVGID_2_)">
		<defs>
			<rect id="SVGID_3_" x="-8.782" y="-22.273" width="65.349" height="92.421"/>
		</defs>
		<clipPath id="SVGID_4_">
			<use xlink:href="#SVGID_3_"  overflow="visible"/>
		</clipPath>
		<path clip-path="url(#SVGID_4_)" fill-rule="evenodd" clip-rule="evenodd" fill="#FFFFFF" d="M24.966,1.515h21.518v44.969H1.516
			V1.515h21.518c-0.083,0.021-0.166,0.054-0.251,0.063c-3.211,0.305-6.013,1.532-8.368,3.742c-2.581,2.422-4.069,5.407-4.385,8.927
			c-0.373,4.154,0.883,7.785,3.69,10.881c0.982,1.084,1.968,2.169,2.879,3.311c3.247,4.07,5.758,8.523,6.892,13.66
			c0.224,1.016,0.347,2.053,0.525,3.136c0.072-0.604,0.12-1.165,0.207-1.722c0.589-3.751,2.021-7.186,3.94-10.436
			c1.78-3.016,4-5.686,6.367-8.254c2.058-2.233,3.172-4.927,3.445-7.945c0.34-3.754-0.672-7.135-3.017-10.081
			c-1.896-2.38-4.332-3.995-7.287-4.767C26.785,1.797,25.869,1.683,24.966,1.515"/>
		<path clip-path="url(#SVGID_4_)" fill-rule="evenodd" clip-rule="evenodd" fill="#BD8477" d="M24.966,1.515
			c0.903,0.168,1.819,0.282,2.706,0.514c2.955,0.773,5.392,2.387,7.287,4.767c2.345,2.945,3.356,6.327,3.017,10.08
			c-0.273,3.019-1.388,5.713-3.445,7.946c-2.367,2.569-4.587,5.239-6.367,8.254c-1.92,3.25-3.352,6.685-3.94,10.437
			c-0.087,0.555-0.135,1.117-0.207,1.721c-0.178-1.083-0.301-2.12-0.525-3.136c-1.134-5.137-3.645-9.59-6.892-13.66
			c-0.912-1.142-1.897-2.227-2.879-3.311c-2.807-3.096-4.063-6.727-3.69-10.881c0.316-3.52,1.804-6.505,4.385-8.927
			c2.355-2.209,5.157-3.437,8.368-3.742c0.085-0.008,0.167-0.041,0.251-0.063H24.966z M23.984,21.192
			c3.1,0.006,5.621-2.495,5.636-5.591c0.015-3.109-2.517-5.65-5.627-5.648c-3.091,0.001-5.61,2.524-5.613,5.618
			C18.377,18.668,20.888,21.186,23.984,21.192"/>
		<path clip-path="url(#SVGID_4_)" fill-rule="evenodd" clip-rule="evenodd" fill="#FFFFFF" d="M23.984,21.192
			c-3.096-0.006-5.607-2.524-5.604-5.621c0.002-3.094,2.522-5.617,5.613-5.618c3.111-0.001,5.642,2.54,5.627,5.648
			C29.605,18.697,27.084,21.198,23.984,21.192"/>
	</g>
</g>
</svg>
