<?xml version="1.0" encoding="utf-8"?>
<!-- Generator: Adobe Illustrator 16.0.0, SVG Export Plug-In . SVG Version: 6.00 Build 0)  -->
<!DOCTYPE svg PUBLIC "-//W3C//DTD SVG 1.1//EN" "http://www.w3.org/Graphics/SVG/1.1/DTD/svg11.dtd">
<svg version="1.1" id="Layer_1" xmlns="http://www.w3.org/2000/svg" xmlns:xlink="http://www.w3.org/1999/xlink" x="0px" y="0px"
	 width="48px" height="48px" viewBox="0 0 48 48" enable-background="new 0 0 48 48" xml:space="preserve">
<g display="none">
	<g display="inline">
		<defs>
			<rect id="SVGID_1_" x="2.765" y="1.113" width="42.47" height="45.774"/>
		</defs>
		<clipPath id="SVGID_2_">
			<use xlink:href="#SVGID_1_"  overflow="visible"/>
		</clipPath>
		<g clip-path="url(#SVGID_2_)">
			<defs>
				<rect id="SVGID_3_" x="-12.851" y="-28.172" width="73.78" height="104.345"/>
			</defs>
			<clipPath id="SVGID_4_">
				<use xlink:href="#SVGID_3_"  overflow="visible"/>
			</clipPath>
			<path clip-path="url(#SVGID_4_)" fill="#BC8376" d="M6.132,43.521h7.301v-7.301H6.132V43.521z M15.124,43.521h8.146v-7.301
				h-8.146V43.521z M6.132,34.606h7.301V26.46H6.132V34.606z M15.124,34.606h8.146V26.46h-8.146V34.606z M6.132,24.846h7.301v-7.301
				H6.132V24.846z M24.884,43.521h8.146v-7.301h-8.146V43.521z M15.124,24.846h8.146v-7.301h-8.146V24.846z M34.645,43.521h7.301
				v-7.301h-7.301V43.521z M24.884,34.606h8.146V26.46h-8.146V34.606z M15.892,12.626V5.325c0-0.23-0.077-0.384-0.23-0.538
				s-0.384-0.23-0.538-0.23H13.51c-0.23,0-0.384,0.077-0.538,0.23s-0.23,0.384-0.23,0.538v7.301c0,0.231,0.077,0.385,0.23,0.538
				c0.154,0.154,0.384,0.231,0.538,0.231h1.614c0.23,0,0.384-0.077,0.538-0.231C15.815,13.011,15.892,12.857,15.892,12.626
				 M34.645,34.606h7.301V26.46h-7.301V34.606z M24.884,24.846h8.146v-7.301h-8.146V24.846z M34.645,24.846h7.301v-7.301h-7.301
				V24.846z M35.413,12.626V5.325c0-0.23-0.077-0.384-0.23-0.538c-0.154-0.154-0.385-0.23-0.538-0.23H33.03
				c-0.23,0-0.384,0.077-0.538,0.23c-0.153,0.154-0.23,0.384-0.23,0.538v7.301c0,0.231,0.077,0.385,0.23,0.538
				c0.154,0.154,0.385,0.231,0.538,0.231h1.614c0.23,0,0.384-0.077,0.538-0.231C35.336,13.011,35.413,12.857,35.413,12.626
				 M45.174,11.012v32.509c0,0.846-0.308,1.614-1,2.306c-0.691,0.691-1.383,0.999-2.305,0.999H6.132
				c-0.845,0-1.614-0.308-2.306-0.999c-0.615-0.615-0.999-1.384-0.999-2.306V11.012c0-0.845,0.307-1.614,0.999-2.306
				c0.615-0.615,1.383-0.999,2.306-0.999h3.305V5.248c0-1.153,0.384-2.075,1.229-2.843c0.769-0.769,1.768-1.23,2.844-1.23h1.614
				c1.153,0,2.075,0.384,2.844,1.23c0.769,0.769,1.229,1.768,1.229,2.843v2.459h9.76V5.248c0-1.153,0.385-2.075,1.23-2.843
				c0.768-0.769,1.768-1.23,2.843-1.23h1.614c1.153,0,2.075,0.384,2.844,1.23c0.769,0.769,1.229,1.768,1.229,2.843v2.459h3.228
				c0.846,0,1.614,0.308,2.306,0.999C44.866,9.321,45.174,10.09,45.174,11.012"/>
			<path clip-path="url(#SVGID_4_)" fill="none" stroke="#BC8276" stroke-miterlimit="10" d="M6.132,43.521h7.301v-7.301H6.132
				V43.521z M15.124,43.521h8.146v-7.301h-8.146V43.521z M6.132,34.606h7.301V26.46H6.132V34.606z M15.124,34.606h8.146V26.46
				h-8.146V34.606z M6.132,24.846h7.301v-7.301H6.132V24.846z M24.884,43.521h8.146v-7.301h-8.146V43.521z M15.124,24.846h8.146
				v-7.301h-8.146V24.846z M34.645,43.521h7.301v-7.301h-7.301V43.521z M24.884,34.606h8.146V26.46h-8.146V34.606z M15.892,12.626
				V5.325c0-0.23-0.077-0.384-0.23-0.538s-0.384-0.23-0.538-0.23H13.51c-0.23,0-0.384,0.077-0.538,0.23s-0.23,0.384-0.23,0.538
				v7.301c0,0.231,0.077,0.385,0.23,0.538c0.154,0.154,0.384,0.231,0.538,0.231h1.614c0.23,0,0.384-0.077,0.538-0.231
				C15.815,13.011,15.892,12.857,15.892,12.626z M34.645,34.606h7.301V26.46h-7.301V34.606z M24.884,24.846h8.146v-7.301h-8.146
				V24.846z M34.645,24.846h7.301v-7.301h-7.301V24.846z M35.413,12.626V5.325c0-0.23-0.077-0.384-0.23-0.538
				c-0.154-0.154-0.385-0.23-0.538-0.23H33.03c-0.23,0-0.384,0.077-0.538,0.23c-0.153,0.154-0.23,0.384-0.23,0.538v7.301
				c0,0.231,0.077,0.385,0.23,0.538c0.154,0.154,0.385,0.231,0.538,0.231h1.614c0.23,0,0.384-0.077,0.538-0.231
				C35.336,13.011,35.413,12.857,35.413,12.626z M45.174,11.012v32.509c0,0.846-0.308,1.614-1,2.306
				c-0.691,0.691-1.383,0.999-2.305,0.999H6.132c-0.845,0-1.614-0.308-2.306-0.999c-0.615-0.615-0.999-1.384-0.999-2.306V11.012
				c0-0.845,0.307-1.614,0.999-2.306c0.615-0.615,1.383-0.999,2.306-0.999h3.305V5.248c0-1.153,0.384-2.075,1.229-2.843
				c0.769-0.769,1.768-1.23,2.844-1.23h1.614c1.153,0,2.075,0.384,2.844,1.23c0.769,0.769,1.229,1.768,1.229,2.843v2.459h9.76V5.248
				c0-1.153,0.385-2.075,1.23-2.843c0.768-0.769,1.768-1.23,2.843-1.23h1.614c1.153,0,2.075,0.384,2.844,1.23
				c0.769,0.769,1.229,1.768,1.229,2.843v2.459h3.228c0.846,0,1.614,0.308,2.306,0.999C44.866,9.321,45.174,10.09,45.174,11.012z"/>
		</g>
	</g>
</g>
<g display="none">
	<g display="inline">
		<defs>
			<rect id="SVGID_5_" x="2.262" y="2.262" width="43.475" height="43.476"/>
		</defs>
		<clipPath id="SVGID_6_">
			<use xlink:href="#SVGID_5_"  overflow="visible"/>
		</clipPath>
		<g clip-path="url(#SVGID_6_)">
			<defs>
				<rect id="SVGID_7_" x="-7.693" y="-20.736" width="63.179" height="89.352"/>
			</defs>
			<clipPath id="SVGID_8_">
				<use xlink:href="#SVGID_7_"  overflow="visible"/>
			</clipPath>
			<path clip-path="url(#SVGID_8_)" fill-rule="evenodd" clip-rule="evenodd" fill="#FFFFFF" d="M24.934,2.262h20.804v43.475H2.262
				V2.262h20.804c-0.081,0.021-0.161,0.053-0.243,0.061c-3.104,0.294-5.813,1.481-8.089,3.618c-2.496,2.341-3.935,5.227-4.24,8.63
				c-0.36,4.015,0.854,7.525,3.567,10.519c0.95,1.048,1.903,2.097,2.784,3.201c3.139,3.935,5.566,8.239,6.663,13.206
				c0.216,0.981,0.335,1.984,0.507,3.032c0.069-0.584,0.116-1.128,0.201-1.665c0.569-3.627,1.953-6.947,3.809-10.089
				c1.722-2.916,3.868-5.497,6.155-7.98c1.989-2.159,3.067-4.764,3.331-7.682c0.329-3.629-0.649-6.898-2.916-9.746
				c-1.833-2.301-4.188-3.862-7.046-4.608C26.692,2.535,25.807,2.425,24.934,2.262"/>
			<path clip-path="url(#SVGID_8_)" fill-rule="evenodd" clip-rule="evenodd" fill="#CD8D74" d="M24.934,2.262
				c0.873,0.163,1.759,0.273,2.615,0.497c2.857,0.747,5.213,2.307,7.046,4.608c2.267,2.847,3.245,6.117,2.916,9.746
				c-0.264,2.918-1.342,5.523-3.331,7.682c-2.287,2.483-4.434,5.064-6.155,7.98c-1.856,3.142-3.24,6.462-3.809,10.089
				c-0.084,0.537-0.131,1.081-0.201,1.665c-0.172-1.048-0.291-2.051-0.507-3.032c-1.096-4.967-3.523-9.271-6.663-13.206
				c-0.881-1.104-1.834-2.153-2.784-3.201c-2.713-2.993-3.928-6.504-3.567-10.519c0.306-3.403,1.745-6.289,4.24-8.63
				c2.277-2.136,4.985-3.323,8.089-3.618c0.082-0.008,0.162-0.04,0.243-0.061H24.934z M23.984,21.286
				c2.997,0.005,5.435-2.413,5.449-5.405c0.014-3.006-2.434-5.462-5.441-5.461c-2.988,0.001-5.424,2.44-5.426,5.432
				C18.564,18.845,20.991,21.28,23.984,21.286"/>
			<path clip-path="url(#SVGID_8_)" fill-rule="evenodd" clip-rule="evenodd" fill="#FFFFFF" d="M23.984,21.286
				c-2.993-0.006-5.42-2.44-5.418-5.435c0.002-2.991,2.438-5.43,5.426-5.432c3.007-0.001,5.455,2.455,5.441,5.461
				C29.419,18.873,26.981,21.291,23.984,21.286"/>
		</g>
	</g>
</g>
<g display="none">
	<g display="inline">
		<defs>
			<rect id="SVGID_9_" x="2.5" y="10.61" width="43" height="26.781"/>
		</defs>
		<clipPath id="SVGID_10_">
			<use xlink:href="#SVGID_9_"  overflow="visible"/>
		</clipPath>
		
			<line clip-path="url(#SVGID_10_)" fill="none" stroke="#BC8276" stroke-width="10" stroke-miterlimit="10" x1="3.443" y1="11.553" x2="3.443" y2="36.447"/>
		
			<line clip-path="url(#SVGID_10_)" fill="none" stroke="#BC8276" stroke-width="10" stroke-miterlimit="10" x1="3.443" y1="36.447" x2="44.557" y2="36.447"/>
		
			<line clip-path="url(#SVGID_10_)" fill="none" stroke="#BC8276" stroke-width="10" stroke-miterlimit="10" x1="44.557" y1="36.447" x2="44.557" y2="11.553"/>
		<g clip-path="url(#SVGID_10_)">
			<defs>
				<rect id="SVGID_11_" x="-31.447" y="-52.318" width="112.268" height="158.777"/>
			</defs>
			<clipPath id="SVGID_12_">
				<use xlink:href="#SVGID_11_"  overflow="visible"/>
			</clipPath>
			<path clip-path="url(#SVGID_12_)" fill="none" stroke="#BC8276" stroke-width="10" stroke-miterlimit="10" d="M27.802,23.098
				c-0.816-0.815-2.141-0.815-2.955,0L24,23.945l-0.845-0.847c-0.817-0.815-2.141-0.815-2.958,0c-0.816,0.816-0.816,2.14,0,2.958
				l0.847,0.845L24,29.857l2.957-2.957l0.845-0.845C28.619,25.238,28.619,23.915,27.802,23.098z"/>
			
				<line clip-path="url(#SVGID_12_)" fill="none" stroke="#BC8276" stroke-width="10" stroke-miterlimit="10" x1="44.557" y1="11.553" x2="28.415" y2="24"/>
			
				<line clip-path="url(#SVGID_12_)" fill="none" stroke="#BC8276" stroke-width="10" stroke-miterlimit="10" x1="3.443" y1="11.553" x2="19.667" y2="24"/>
			
				<line clip-path="url(#SVGID_12_)" fill="none" stroke="#BC8276" stroke-width="10" stroke-miterlimit="10" x1="2.5" y1="11.553" x2="45.438" y2="11.553"/>
			
				<line clip-path="url(#SVGID_12_)" fill="none" stroke="#BC8276" stroke-width="10" stroke-miterlimit="10" x1="2.5" y1="36.447" x2="45.438" y2="36.447"/>
		</g>
	</g>
</g>
<g>
	<g>
		<g>
			<path fill="#BD8477" d="M41.564,41.545H6.34c-2.806,0-5.128-2.324-5.128-5.129V14.547c0-2.806,2.322-5.129,5.128-5.129h35.32
				c2.807,0,5.127,2.323,5.127,5.129v21.869C46.691,39.221,44.369,41.545,41.564,41.545z M6.34,11.451
				c-1.742,0-3.193,1.451-3.193,3.193v21.868c0,1.742,1.451,3.193,3.193,3.193h35.32c1.74,0,3.191-1.451,3.191-3.193V14.547
				c0-1.742-1.451-3.194-3.191-3.194H6.34V11.451z"/>
		</g>
		<g>
			<path fill="#BD8477" d="M33.338,46.285H14.565c-1.742,0-3.096-1.354-3.096-3.096v-2.613c0-0.58,0.387-0.967,0.968-0.967h23.03
				c0.58,0,0.967,0.387,0.967,0.967v2.613C36.434,44.834,35.08,46.285,33.338,46.285z M13.405,41.545v1.645
				c0,0.676,0.483,1.16,1.161,1.16h18.772c0.678,0,1.16-0.484,1.16-1.16v-1.645H13.405z"/>
		</g>
		<g>
			<path fill="#BD8477" d="M24.823,11.451c-0.193,0-0.484-0.097-0.677-0.29l-9.192-8.709L16.308,1l8.515,8.128l6.773-6.387
				l1.355,1.452L25.5,11.257C25.307,11.354,25.113,11.451,24.823,11.451z"/>
		</g>
		<g>
			<g>
				<path fill="#BD8477" d="M23.952,35.641l-0.581-0.387c-0.387-0.291-9.386-6.58-9.386-12.772c0-3.774,2.806-6.87,6.193-6.87
					c1.354,0,2.612,0.484,3.677,1.354c1.064-0.871,2.323-1.354,3.678-1.354c3.482,0,6.191,3.096,6.191,6.87
					c0,6.192-8.999,12.481-9.386,12.772L23.952,35.641z M20.275,17.547c-2.419,0-4.258,2.226-4.258,4.935
					c0,4.45,6.096,9.385,7.935,10.741c1.935-1.451,7.935-6.389,7.935-10.741c0-2.709-1.936-4.935-4.258-4.935
					c-1.064,0-2.129,0.484-2.999,1.355l-0.678,0.774l-0.677-0.774C22.403,18.031,21.339,17.547,20.275,17.547z"/>
			</g>
		</g>
	</g>
</g>
</svg>
